# xmcd CD database file
#
# Track frame offsets:
#	150
#	29829
#	67940
#	98191
#	131826
#	151043
#	173098
#	196728
#
# Disc length: 2827 seconds
#
# Revision: 0
# Processed by: cddbd v1.5.1PL0 Copyright (c) Steve Scherf et al.
# Submitted via: CDex 1.60beta1
#
DISCID=630b0908
DTITLE=Various Artist - Music Is The Message
DYEAR=1900
DGENRE=Jazz
TTITLE0=Newport All Stars/Back Home Again
TTITLE1=Wendell Brunious/Hesitating Blues
TTITLE2=Maurice Brown Quintet/It's A Brand
TTITLE3=Chico Hamilton and Euphoria/Delightful, Charming and Cool
TTITLE4=Carol Fran/Struggling Wit The Boogie
TTITLE5=Sharon Martin/Work Song
TTITLE6=Papa Gros Funk/If I
TTITLE7=CJ Chenier and The Louisiana Band/Got My Eyes On You
EXTD=
EXTT0=
EXTT1=
EXTT2=
EXTT3=
EXTT4=
EXTT5=
EXTT6=
EXTT7=
PLAYORDER=
